<svg xmlns="http://www.w3.org/2000/svg" xmlns:xlink="http://www.w3.org/1999/xlink" width="61" height="46.333" viewBox="0 0 61 46.333">
  <defs>
    <linearGradient id="linear-gradient" x1="0.5" x2="0.5" y2="1" gradientUnits="objectBoundingBox">
      <stop offset="0" stop-color="#c24cae"/>
      <stop offset="0.661" stop-color="#936eca"/>
      <stop offset="1" stop-color="#5483db"/>
    </linearGradient>
  </defs>
  <path id="data-platform" d="M-1446.151-5421.967h-27.5a9.164,9.164,0,0,1-8.925-7.237l-.048-.229-.234-.008a33.356,33.356,0,0,1-10.635-1.943c-3.741-1.447-5.8-3.55-5.8-5.922v-23.1c0-2.372,2.061-4.475,5.8-5.922a35.036,35.036,0,0,1,12.225-1.974,35.035,35.035,0,0,1,12.225,1.974c3.741,1.446,5.8,3.55,5.8,5.922v10.792l.391-.125a13.164,13.164,0,0,1,4.012-.624,13.176,13.176,0,0,1,13.155,12.444l.262-.014.009.3a7.911,7.911,0,0,1,7.117,7.817A7.86,7.86,0,0,1-1446.151-5421.967Zm-27.5-15.236a6.119,6.119,0,0,0-6.112,6.113,6.119,6.119,0,0,0,6.112,6.113h27.5a4.846,4.846,0,0,0,4.84-4.841,4.846,4.846,0,0,0-4.84-4.84,4.837,4.837,0,0,0-.823.072l-1.937.331.186-1.958c.031-.326.047-.653.047-.972a10.177,10.177,0,0,0-10.164-10.166,10.192,10.192,0,0,0-10.136,9.442l-.153,2.168-1.976-.908A6.081,6.081,0,0,0-1473.656-5437.2Zm-22.634-7.115h0v7.011c0,.948,1.323,2.062,3.541,2.98a28.5,28.5,0,0,0,9.81,1.872l.261.011.046-.257a9.109,9.109,0,0,1,8.977-7.512,9.2,9.2,0,0,1,1.662.15l.279.052.066-.276a13.2,13.2,0,0,1,.44-1.447l.2-.539-.555.147a38.589,38.589,0,0,1-9.706,1.165,35.058,35.058,0,0,1-12.225-1.973,15.825,15.825,0,0,1-2.339-1.118Zm0-11.549h0v7.011c0,1.007,1.525,2.216,3.98,3.154a30.966,30.966,0,0,0,11.037,1.729c7.035,0,11.74-1.635,13.8-3.166l.018-.013c.149-.129.295-.25.433-.36l.019-.016a1.941,1.941,0,0,0,.75-1.329v-7.011l-.452.267a16.047,16.047,0,0,1-2.339,1.117,35.039,35.039,0,0,1-12.225,1.973,35.04,35.04,0,0,1-12.225-1.973,15.813,15.813,0,0,1-2.339-1.117Zm15.016-9.423a31.014,31.014,0,0,0-11.037,1.729c-2.455.94-3.98,2.149-3.98,3.156s1.525,2.217,3.98,3.155a30.972,30.972,0,0,0,11.037,1.729,30.954,30.954,0,0,0,11.036-1.729c2.455-.938,3.981-2.147,3.981-3.155s-1.525-2.217-3.981-3.156A31,31,0,0,0-1481.273-5465.29Z" transform="translate(1499.3 5468.3)" fill="url(#linear-gradient)"/>
</svg>
