<svg xmlns="http://www.w3.org/2000/svg" xmlns:xlink="http://www.w3.org/1999/xlink" width="74" height="73.999" viewBox="0 0 74 73.999">
  <defs>
    <linearGradient id="linear-gradient" x1="0.5" x2="0.5" y2="1" gradientUnits="objectBoundingBox">
      <stop offset="0" stop-color="#c24cae"/>
      <stop offset="1" stop-color="#5483db"/>
    </linearGradient>
  </defs>
  <path id="ifoundry" d="M106.684-5395.1a1.231,1.231,0,0,1-1.106-.969l-.928-4.3a19.974,19.974,0,0,1-2.162-.578l-2.948,3.253a1.232,1.232,0,0,1-1.444.285,24.677,24.677,0,0,1-3.435-1.968,1.234,1.234,0,0,1-.472-1.392l1.346-4.178a19.842,19.842,0,0,1-1.592-1.591l-4.177,1.345a1.233,1.233,0,0,1-1.393-.472A24.663,24.663,0,0,1,86.4-5409.1a1.236,1.236,0,0,1,.285-1.445l3.253-2.947a19.279,19.279,0,0,1-.576-2.162l-4.3-.926a1.234,1.234,0,0,1-.969-1.108c-.052-.656-.1-1.313-.1-1.983s.047-1.327.1-1.984a1.236,1.236,0,0,1,.969-1.106l4.3-.928a19.673,19.673,0,0,1,.576-2.162l-3.253-2.947a1.236,1.236,0,0,1-.285-1.445,24.692,24.692,0,0,1,1.968-3.434,1.233,1.233,0,0,1,1.393-.472l4.175,1.345a19.762,19.762,0,0,1,1.592-1.591l-1.346-4.177a1.235,1.235,0,0,1,.472-1.393,24.629,24.629,0,0,1,3.435-1.968,1.231,1.231,0,0,1,1.444.284l2.948,3.254a19.539,19.539,0,0,1,2.16-.578l.928-4.3a1.232,1.232,0,0,1,1.108-.97,25.136,25.136,0,0,1,3.967,0,1.235,1.235,0,0,1,1.106.97l.928,4.3a19.976,19.976,0,0,1,2.162.578l2.948-3.254a1.23,1.23,0,0,1,1.444-.284,24.629,24.629,0,0,1,3.435,1.968,1.235,1.235,0,0,1,.472,1.393l-1.345,4.177a19.972,19.972,0,0,1,1.591,1.591l4.177-1.345a1.233,1.233,0,0,1,1.393.472,24.831,24.831,0,0,1,1.968,3.434,1.234,1.234,0,0,1-.285,1.445l-3.253,2.947a19.285,19.285,0,0,1,.576,2.162l4.3.928a1.233,1.233,0,0,1,.969,1.107c.052.656.1,1.313.1,1.983s-.047,1.327-.1,1.985a1.237,1.237,0,0,1-.969,1.106l-4.3.926a19.687,19.687,0,0,1-.576,2.163l3.253,2.947a1.236,1.236,0,0,1,.285,1.445,24.664,24.664,0,0,1-1.968,3.434,1.233,1.233,0,0,1-1.393.472l-4.177-1.345a19.991,19.991,0,0,1-1.592,1.59l1.346,4.178a1.234,1.234,0,0,1-.472,1.392,24.775,24.775,0,0,1-3.435,1.968,1.23,1.23,0,0,1-1.444-.285l-2.948-3.253a19.56,19.56,0,0,1-2.162.578l-.928,4.3a1.23,1.23,0,0,1-1.108.969c-.656.052-1.314.1-1.982.1S107.34-5395.048,106.684-5395.1Zm-4.123-8.436a17.1,17.1,0,0,0,3.319.887,1.233,1.233,0,0,1,1.007.958l.906,4.2a16.6,16.6,0,0,0,1.75,0l.906-4.2a1.233,1.233,0,0,1,1.007-.958,17.037,17.037,0,0,0,3.317-.887,1.239,1.239,0,0,1,1.352.325l2.871,3.17c.528-.276,1.035-.564,1.514-.863l-1.309-4.065a1.232,1.232,0,0,1,.393-1.332,17.348,17.348,0,0,0,2.439-2.44,1.228,1.228,0,0,1,1.334-.391l4.064,1.31q.449-.721.863-1.517l-3.168-2.87a1.23,1.23,0,0,1-.325-1.351,17.32,17.32,0,0,0,.887-3.319,1.236,1.236,0,0,1,.957-1.009l4.2-.906c.016-.288.026-.581.026-.875s-.011-.586-.027-.875l-4.2-.9a1.236,1.236,0,0,1-.957-1.009,17.14,17.14,0,0,0-.887-3.317,1.234,1.234,0,0,1,.325-1.352l3.169-2.871q-.412-.792-.863-1.514l-4.064,1.31a1.23,1.23,0,0,1-1.334-.393,17.375,17.375,0,0,0-2.439-2.439,1.234,1.234,0,0,1-.393-1.333l1.309-4.065c-.479-.3-.985-.587-1.515-.863l-2.871,3.168a1.232,1.232,0,0,1-1.351.327,17.1,17.1,0,0,0-3.319-.887,1.236,1.236,0,0,1-1.007-.958l-.906-4.2a16.473,16.473,0,0,0-1.75,0l-.906,4.2a1.236,1.236,0,0,1-1.007.958,17.011,17.011,0,0,0-3.317.887,1.234,1.234,0,0,1-1.352-.327l-2.871-3.169c-.53.275-1.036.564-1.515.864l1.309,4.065a1.23,1.23,0,0,1-.393,1.333,17.312,17.312,0,0,0-2.439,2.44,1.239,1.239,0,0,1-1.334.391l-4.064-1.31c-.3.48-.587.987-.863,1.516l3.168,2.871a1.23,1.23,0,0,1,.325,1.351,17.312,17.312,0,0,0-.887,3.319,1.236,1.236,0,0,1-.957,1.009l-4.2.906c-.016.288-.026.581-.026.874s.011.586.026.876l4.2.9a1.232,1.232,0,0,1,.957,1.007,17.137,17.137,0,0,0,.887,3.318,1.234,1.234,0,0,1-.325,1.352l-3.169,2.872q.412.795.863,1.515l4.064-1.309a1.234,1.234,0,0,1,1.334.391,17.308,17.308,0,0,0,2.439,2.44,1.234,1.234,0,0,1,.393,1.333l-1.309,4.065c.479.3.985.587,1.515.863l2.871-3.169a1.229,1.229,0,0,1,.914-.406A1.225,1.225,0,0,1,102.561-5403.536ZM95.1-5419.667a13.583,13.583,0,0,1,13.568-13.566,13.582,13.582,0,0,1,13.566,13.566,13.583,13.583,0,0,1-13.566,13.566A13.583,13.583,0,0,1,95.1-5419.667Zm2.466,0a11.114,11.114,0,0,0,11.1,11.1,11.114,11.114,0,0,0,11.1-11.1,11.113,11.113,0,0,0-11.1-11.1A11.114,11.114,0,0,0,97.566-5419.667Zm46.6,6.065a1.235,1.235,0,0,1-1.014-.811l-.754-2.12a9.69,9.69,0,0,1-1.006-.413l-2.03.962a1.236,1.236,0,0,1-1.289-.143,12.371,12.371,0,0,1-2.121-2.122,1.227,1.227,0,0,1-.143-1.288l.964-2.029a9.937,9.937,0,0,1-.416-1.007l-2.119-.752a1.23,1.23,0,0,1-.811-1.015,12.221,12.221,0,0,1-.1-1.5,11.943,11.943,0,0,1,.1-1.495,1.232,1.232,0,0,1,.811-1.013l2.119-.755a9.738,9.738,0,0,1,.415-1.006l-.964-2.03a1.236,1.236,0,0,1,.143-1.289,12.352,12.352,0,0,1,2.122-2.119,1.234,1.234,0,0,1,1.287-.144l2.029.963a9.966,9.966,0,0,1,1.007-.416l.752-2.118a1.235,1.235,0,0,1,1.014-.812,11.378,11.378,0,0,1,2.994,0,1.237,1.237,0,0,1,1.013.813l.754,2.118a10.189,10.189,0,0,1,1.007.415l2.03-.962a1.234,1.234,0,0,1,1.289.143,12.406,12.406,0,0,1,2.119,2.121,1.225,1.225,0,0,1,.143,1.288l-.962,2.029a10.436,10.436,0,0,1,.416,1.009l2.118.752a1.234,1.234,0,0,1,.813,1.015,12.5,12.5,0,0,1,.1,1.5,11.969,11.969,0,0,1-.1,1.5,1.239,1.239,0,0,1-.813,1.015l-2.118.753a9.9,9.9,0,0,1-.415,1.006l.964,2.03a1.235,1.235,0,0,1-.144,1.289,12.384,12.384,0,0,1-2.121,2.121,1.225,1.225,0,0,1-1.287.143l-2.029-.964a10.009,10.009,0,0,1-1.009.416l-.752,2.119a1.229,1.229,0,0,1-1.013.812,12.31,12.31,0,0,1-1.5.1A11.767,11.767,0,0,1,144.171-5413.6Zm-2.141-5.793a7.265,7.265,0,0,0,1.661.684,1.238,1.238,0,0,1,.833.777l.695,1.954a8.145,8.145,0,0,0,.9,0l.693-1.954a1.243,1.243,0,0,1,.835-.777,7.287,7.287,0,0,0,1.659-.684,1.237,1.237,0,0,1,1.136-.042l1.867.887q.334-.306.642-.644l-.887-1.865a1.24,1.24,0,0,1,.041-1.137,7.355,7.355,0,0,0,.685-1.661,1.231,1.231,0,0,1,.775-.833l1.955-.695c.008-.148.012-.3.012-.45s0-.3-.015-.451l-1.955-.693a1.238,1.238,0,0,1-.775-.834,7.365,7.365,0,0,0-.685-1.661,1.234,1.234,0,0,1-.04-1.135l.885-1.865c-.2-.224-.419-.438-.642-.644l-1.867.885a1.229,1.229,0,0,1-1.135-.04,7.348,7.348,0,0,0-1.662-.685,1.233,1.233,0,0,1-.832-.776l-.695-1.955a8.391,8.391,0,0,0-.9,0l-.695,1.955a1.237,1.237,0,0,1-.835.776,7.334,7.334,0,0,0-1.659.685,1.232,1.232,0,0,1-1.136.04l-1.865-.885c-.224.2-.438.418-.642.644l.885,1.865a1.234,1.234,0,0,1-.041,1.135,7.348,7.348,0,0,0-.685,1.662,1.236,1.236,0,0,1-.775.833l-1.954.694c-.007.148-.012.3-.012.45s.005.3.015.45l1.954.695a1.238,1.238,0,0,1,.775.834,7.327,7.327,0,0,0,.685,1.659,1.236,1.236,0,0,1,.041,1.137l-.885,1.865q.3.335.642.644l1.865-.887a1.254,1.254,0,0,1,.529-.117A1.235,1.235,0,0,1,142.03-5419.4Zm-1.3-6.439a4.938,4.938,0,0,1,4.934-4.933,4.938,4.938,0,0,1,4.933,4.933,4.938,4.938,0,0,1-4.933,4.935A4.939,4.939,0,0,1,140.733-5425.834Zm2.468,0a2.469,2.469,0,0,0,2.466,2.467,2.469,2.469,0,0,0,2.466-2.467,2.469,2.469,0,0,0-2.466-2.466A2.469,2.469,0,0,0,143.2-5425.834Zm-59.173-14.356a32,32,0,0,1,24.64-11.543c.679,0,1.359.039,2.037.081l-1.676-1.676,1.743-1.743,3.7,3.7a1.233,1.233,0,0,1,0,1.744l-3.7,3.7-1.743-1.745,1.519-1.52c-.627-.04-1.253-.075-1.88-.075a29.542,29.542,0,0,0-22.746,10.656Zm48.815.682a1.232,1.232,0,0,1-1.035-.855l-1.073-3.419c-.28-.1-.556-.217-.824-.34l-3.176,1.657a1.233,1.233,0,0,1-1.335-.127,14.9,14.9,0,0,1-2.442-2.44,1.235,1.235,0,0,1-.125-1.335l1.657-3.176q-.185-.4-.34-.824l-3.419-1.075a1.23,1.23,0,0,1-.855-1.035,14.734,14.734,0,0,1-.107-1.721,14.753,14.753,0,0,1,.107-1.721,1.23,1.23,0,0,1,.855-1.035l3.419-1.075c.1-.28.217-.555.339-.824l-1.655-3.176a1.232,1.232,0,0,1,.126-1.335,14.981,14.981,0,0,1,2.44-2.441,1.24,1.24,0,0,1,1.337-.125l3.175,1.657c.269-.124.545-.238.825-.339l1.073-3.42a1.232,1.232,0,0,1,1.035-.855,13.649,13.649,0,0,1,3.445,0,1.232,1.232,0,0,1,1.035.855l1.075,3.42c.279.1.555.216.824.339l3.177-1.658a1.237,1.237,0,0,1,1.337.126,15,15,0,0,1,2.44,2.441,1.235,1.235,0,0,1,.125,1.335l-1.657,3.176c.125.269.237.543.34.824l3.42,1.075a1.231,1.231,0,0,1,.854,1.035,14.753,14.753,0,0,1,.107,1.721,14.457,14.457,0,0,1-.108,1.721,1.228,1.228,0,0,1-.854,1.035l-3.42,1.078c-.1.28-.215.555-.34.824l1.658,3.176a1.235,1.235,0,0,1-.128,1.335,14.956,14.956,0,0,1-2.44,2.44,1.235,1.235,0,0,1-1.335.126l-3.176-1.658c-.269.125-.545.239-.824.34l-1.075,3.42a1.235,1.235,0,0,1-1.035.855,14.748,14.748,0,0,1-1.721.107A14.553,14.553,0,0,1,132.842-5439.509Zm-2.359-7.086a8.548,8.548,0,0,0,1.595.659,1.239,1.239,0,0,1,.824.813l1.016,3.236a10.689,10.689,0,0,0,1.3,0l1.017-3.236a1.237,1.237,0,0,1,.822-.812,8.677,8.677,0,0,0,1.6-.659,1.235,1.235,0,0,1,1.154-.007l3,1.564a12.714,12.714,0,0,0,.925-.924l-1.565-3a1.228,1.228,0,0,1,.007-1.154,8.674,8.674,0,0,0,.659-1.6,1.237,1.237,0,0,1,.811-.822l3.236-1.017c.015-.225.021-.441.021-.649s-.005-.424-.021-.65l-3.236-1.016a1.235,1.235,0,0,1-.811-.822,8.628,8.628,0,0,0-.659-1.6,1.232,1.232,0,0,1-.007-1.154l1.565-3a12.751,12.751,0,0,0-.925-.924l-3,1.564a1.231,1.231,0,0,1-1.156-.008,8.611,8.611,0,0,0-1.595-.658,1.236,1.236,0,0,1-.822-.812l-1.017-3.236a10.689,10.689,0,0,0-1.3,0l-1.016,3.236a1.242,1.242,0,0,1-.824.813,8.743,8.743,0,0,0-1.6.658,1.232,1.232,0,0,1-1.154.008l-3-1.564a12.717,12.717,0,0,0-.925.924l1.565,3a1.23,1.23,0,0,1-.007,1.155,8.563,8.563,0,0,0-.659,1.6,1.238,1.238,0,0,1-.811.822l-3.236,1.016c-.015.226-.021.442-.021.65s.005.424.021.649l3.236,1.017a1.237,1.237,0,0,1,.811.822,8.674,8.674,0,0,0,.659,1.6,1.232,1.232,0,0,1,.007,1.154l-1.565,3a12.466,12.466,0,0,0,.925.924l3-1.564a1.23,1.23,0,0,1,.571-.14A1.238,1.238,0,0,1,130.483-5446.6Zm18.527,3.957a18.3,18.3,0,0,0,4.057-11.562,18.5,18.5,0,0,0-1.827-8.01l-.664,3.32-2.418-.486,1.233-6.166a1.231,1.231,0,0,1,1.452-.968l6.167,1.234-.483,2.418-3.158-.631a20.977,20.977,0,0,1,2.166,9.288,21.02,21.02,0,0,1-4.6,13.1ZM128.4-5454.2a6.174,6.174,0,0,1,6.167-6.167,6.174,6.174,0,0,1,6.165,6.167,6.174,6.174,0,0,1-6.165,6.167A6.174,6.174,0,0,1,128.4-5454.2Zm2.466,0a3.7,3.7,0,0,0,3.7,3.7,3.7,3.7,0,0,0,3.7-3.7,3.7,3.7,0,0,0-3.7-3.7A3.7,3.7,0,0,0,130.867-5454.2Z" transform="translate(-84 5469)" fill="url(#linear-gradient)"/>
</svg>
