<svg xmlns="http://www.w3.org/2000/svg" width="19.881" height="20" viewBox="0 0 19.881 20">
  <path id="search" d="M24.529,25.95,18.7,20a6.775,6.775,0,0,1-2.152,1.245,7.609,7.609,0,0,1-2.613.446,7.655,7.655,0,0,1-5.626-2.306A7.583,7.583,0,0,1,6,13.821,7.583,7.583,0,0,1,8.306,8.256,7.619,7.619,0,0,1,13.9,5.95a7.532,7.532,0,0,1,5.549,2.306,7.609,7.609,0,0,1,2.29,5.565,7.669,7.669,0,0,1-.43,2.552,7.8,7.8,0,0,1-1.291,2.306L25.881,24.6ZM13.9,19.846a5.754,5.754,0,0,0,4.243-1.768A5.83,5.83,0,0,0,19.9,13.821a5.83,5.83,0,0,0-1.752-4.258A5.754,5.754,0,0,0,13.9,7.795,5.84,5.84,0,0,0,9.612,9.562a5.8,5.8,0,0,0-1.768,4.258,5.8,5.8,0,0,0,1.768,4.258A5.84,5.84,0,0,0,13.9,19.846Z" transform="translate(-6 -5.95)" fill="#6f2262"/>
</svg>
