<svg xmlns="http://www.w3.org/2000/svg" xmlns:xlink="http://www.w3.org/1999/xlink" width="150" height="38.648" viewBox="0 0 150 38.648">
  <defs>
    <linearGradient id="linear-gradient" x1="-2.862" y1="-16.071" x2="-2.565" y2="-15.075" gradientUnits="objectBoundingBox">
      <stop offset="0" stop-color="#4b2a63"/>
      <stop offset="1" stop-color="#6f2262"/>
    </linearGradient>
    <linearGradient id="linear-gradient-2" x1="-2.255" y1="8.522" x2="-2.779" y2="8.926" gradientUnits="objectBoundingBox">
      <stop offset="0" stop-color="#fde600"/>
      <stop offset="0.36" stop-color="#fce303"/>
      <stop offset="0.64" stop-color="#f9db0d"/>
      <stop offset="0.89" stop-color="#f3cc1d"/>
      <stop offset="1" stop-color="#f0c427"/>
    </linearGradient>
    <linearGradient id="linear-gradient-3" x1="-2.85" y1="16.4" x2="-2.85" y2="14.822" gradientUnits="objectBoundingBox">
      <stop offset="0" stop-color="#68cce3"/>
      <stop offset="0.19" stop-color="#65c2de"/>
      <stop offset="0.51" stop-color="#5ca9d2"/>
      <stop offset="0.91" stop-color="#4e7fbf"/>
      <stop offset="1" stop-color="#4b75ba"/>
    </linearGradient>
    <linearGradient id="linear-gradient-4" x1="6.584" y1="8.555" x2="6.039" y2="8.982" gradientUnits="objectBoundingBox">
      <stop offset="0" stop-color="#81c348"/>
      <stop offset="0.23" stop-color="#79c048"/>
      <stop offset="0.58" stop-color="#64b749"/>
      <stop offset="0.9" stop-color="#4bac4a"/>
    </linearGradient>
  </defs>
  <g id="bd-logo-with-vam-logo_1_" data-name="bd-logo-with-vam-logo (1)" transform="translate(-13.309 -15.397)">
    <g id="Group_396" data-name="Group 396" transform="translate(13.309 15.397)">
      <path id="Path_365" data-name="Path 365" d="M29.914,15.4a14.017,14.017,0,0,1,4,.549c.188.053.348.067.522.12.7.227,1.432.375,2.141.575.321.093.656.107.99.188.2.04.415.014.6.053.241.053.522-.014.749.04h.342a3.012,3.012,0,0,0,.7-.014l.375-.014c.281-.067.575-.027.843-.107a5.849,5.849,0,0,0,1.044-.415,1.678,1.678,0,0,1,1.218-.334c.081.027.174.014.241.053a1.051,1.051,0,0,1,.388.415c.027.081.014.16.053.227.081.053.188.027.281.067a1.012,1.012,0,0,1,.281.255H44.7v-.014a1.925,1.925,0,0,0,.36-.375l.138-.119.241-.281.081-.067a1.294,1.294,0,0,1,.388-.375c.053-.04.134-.027.216-.04a.863.863,0,0,1,.977.415.671.671,0,0,1,.027.16c.014.067.053.16.067.227a.609.609,0,0,1-.067.268c-.014.04-.014.093-.027.144a1.979,1.979,0,0,1-.174.281,2.176,2.176,0,0,0-.144.308,9.165,9.165,0,0,0-.5.95c-.12.281-.281.562-.4.843-.255.562-.455,1.151-.682,1.753-.12.308-.16.616-.268.935-.348,1.071-.522,2.249-.791,3.386a.957.957,0,0,0,.027.281v.376c.04.188.081.4.134.589l.04.281c.121.468.144.977.267,1.459.04.144.027.294.053.431.027.334.053.656.093.99.027.12,0,.268.027.375l.014.535c.027.134-.027.321.014.468a2.07,2.07,0,0,1-.014.642V32.1c-.027.134,0,.308-.027.442v.216c-.053.227,0,.508-.053.719v.16c-.04.216,0,.455-.053.669-.04.174-.014.375-.053.549-.067.5-.134,1.007-.2,1.5-.081.431-.144.856-.227,1.285-.093.348-.134.719-.241,1.071a21.091,21.091,0,0,1-.7,2.409c-.081.188-.107.375-.188.562a21.457,21.457,0,0,1-1.646,3.439c-.5.776-1.044,1.5-1.582,2.221-.227.294-.522.549-.749.843l-.174.16q-.341.368-.709.709c-.134.107-.268.281-.4.388-.375.281-.709.629-1.084.9-.508.375-1.017.736-1.539,1.1-.642.442-1.325.843-1.994,1.271a8.264,8.264,0,0,1-2.891,1.338,7.55,7.55,0,0,1-2.917-1.285c-.388-.241-.763-.508-1.151-.749-.348-.216-.7-.431-1.03-.669-.241-.16-.468-.36-.709-.522a18.984,18.984,0,0,1-4.617-4.577c-.308-.431-.6-.856-.883-1.312-.144-.227-.255-.468-.388-.7a1.9,1.9,0,0,1-.107-.241,4.243,4.243,0,0,1-.281-.549c-.36-.816-.709-1.646-1.007-2.517-.216-.642-.375-1.325-.562-1.994-.174-.629-.255-1.285-.415-1.942-.067-.281-.081-.589-.144-.87-.053-.468-.12-.923-.174-1.392l-.12-1.445c-.04-.174,0-.388-.027-.549-.014-.227-.014-.442-.027-.669a2.83,2.83,0,0,1-.027-.482V31.4a1.62,1.62,0,0,1,0-.508v-.241c.014-.255.014-.508.027-.763.053-.216-.014-.468.04-.7.04-.144.014-.321.04-.482.081-.36.081-.763.16-1.111.014-.067.014-.134.027-.2.107-.431.134-.9.255-1.325.027-.12.053-.268.093-.388v-.174a.2.2,0,0,0,.014-.093c-.12-.522-.2-1.071-.334-1.582-.053-.174-.053-.321-.093-.5-.174-.589-.281-1.218-.482-1.806a22.526,22.526,0,0,0-1.111-2.85c-.12-.227-.227-.482-.36-.7-.081-.134-.12-.281-.2-.431-.081-.134-.144-.267-.241-.4a1.743,1.743,0,0,1-.134-.2c-.014-.04-.093-.375-.093-.415a1.462,1.462,0,0,1,.067-.227c.014-.053.014-.093.027-.144s.067-.081.093-.12a.805.805,0,0,1,.935-.308l.144.027a1.463,1.463,0,0,1,.482.468c.053.067.144.12.2.2l.321.36a1.521,1.521,0,0,1,.216.2l.014-.014c.081-.053.188-.188.281-.241a2.079,2.079,0,0,1,.308-.067c.027-.482.431-.656.856-.749a3.843,3.843,0,0,1,.508.107c.093.04.188.107.268.144a7.534,7.534,0,0,0,1.392.549c.144.04.294.014.455.053a6.328,6.328,0,0,0,1.258.067,11.9,11.9,0,0,0,1.392-.027c.107,0-.255-.014-.144-.014.334-.081.709-.04,1.044-.12.188-.053.388-.067.575-.12,1.071-.294,2.168-.535,3.252-.83.431-.12.87-.16,1.312-.255.188-.04.375-.04.562-.081Z" transform="translate(-13.309 -15.397)" fill="#fff"/>
      <path id="Path_366" data-name="Path 366" d="M90.3,219.585a23.755,23.755,0,0,0,6.464,4.041c.093.04.107.053.2.014a19.433,19.433,0,0,0,6.678-4.069L97.031,212.8Z" transform="translate(-80.002 -186.383)" fill="url(#linear-gradient)"/>
      <path id="Path_367" data-name="Path 367" d="M147.271,140.441a9.889,9.889,0,0,0,6.665-3.225c.093-.093.134-.067.134.014.107,7.227-2.517,12.928-6.759,16.835-3.2-3.092-6.611-6.772-6.611-6.772Z" transform="translate(-123.656 -120.862)" fill="url(#linear-gradient-2)"/>
      <path id="Path_368" data-name="Path 368" d="M94.3,145.412a10.318,10.318,0,0,0,6.17-2.342.1.1,0,0,1,.121,0,9.665,9.665,0,0,0,6.478,2.476L100.5,152.4Z" transform="translate(-83.466 -125.967)" fill="url(#linear-gradient-3)"/>
      <path id="Path_369" data-name="Path 369" d="M48.293,140.16a9.23,9.23,0,0,1-6.865-3.132c-.093-.093-.16-.014-.16.053a20.37,20.37,0,0,0,6.478,16.849c3.212-3.105,6.731-6.785,6.731-6.785Z" transform="translate(-37.459 -120.712)" fill="url(#linear-gradient-4)"/>
      <path id="Path_370" data-name="Path 370" d="M132.764,105.8l1.245,2.4-1.245,1.392L131.6,108.2Z" transform="translate(-115.774 -93.703)" fill="#365ba2"/>
      <path id="Path_371" data-name="Path 371" d="M30.32,34.213a5.633,5.633,0,0,0-1.98.36c.014-.014.027-.027.027-.04-1.071-.16-4.256-2.489-4.256-2.489l1.071,1.914L21.5,30.8c2.034,2.476,2.931,7.91,3.158,9.555v.027c.014.144.04.281.053.431v.027h0a5.681,5.681,0,1,0,5.609-6.624Zm0,9.636a3.961,3.961,0,1,1,3.961-3.961h0a3.955,3.955,0,0,1-3.961,3.961Z" transform="translate(-20.409 -28.74)" fill="#6a9448"/>
      <path id="Path_372" data-name="Path 372" d="M69.544,77.566a3.272,3.272,0,1,1-6.544,0c0-.134.014-.268.027-.4a1.454,1.454,0,0,0,2.235-1.231,1.491,1.491,0,0,0-.629-1.2,3.28,3.28,0,0,1,4.484,1.191,3.393,3.393,0,0,1,.431,1.646Z" transform="translate(-56.355 -66.405)" fill="#34589b"/>
      <path id="Path_373" data-name="Path 373" d="M149.6,39.9a5.685,5.685,0,0,0,11.295.935h0v-.027a4.15,4.15,0,0,0,.053-.431v-.027c.227-1.633,1.124-7.066,3.158-9.555L160.4,33.938l1.071-1.913s-3.172,2.328-4.256,2.489c.014,0,.014.027.027.04a5.526,5.526,0,0,0-1.98-.36A5.689,5.689,0,0,0,149.6,39.9Zm1.713,0a3.961,3.961,0,1,1,3.962,3.961h0a3.978,3.978,0,0,1-3.962-3.961Z" transform="translate(-131.365 -28.738)" fill="#6a9448"/>
      <path id="Path_374" data-name="Path 374" d="M167.6,77.649a3.265,3.265,0,0,0,6.531,0c0-.134-.014-.268-.027-.4a1.451,1.451,0,0,1-1.593-2.424,3.257,3.257,0,0,0-4.911,2.824Z" transform="translate(-146.957 -66.488)" fill="#34589b"/>
      <path id="Path_375" data-name="Path 375" d="M58.707,34.939S59.713,31.1,62.9,30.776c2.864-.334,4.911.415,8.485-2.034-4.537,1.806-8.605-.642-12.512-.642s-9.662,2.623-12.767.669c1.553,1.887,4.43,1.78,6.812,2.047C58.239,30.937,58.707,34.939,58.707,34.939Z" transform="translate(-41.717 -26.401)" fill="#34589b"/>
      <path id="Path_376" data-name="Path 376" d="M272.249,21.729v-2.1H271.5V19.2h2.021v.431h-.749v2.115h-.522Z" transform="translate(-236.952 -18.692)" fill="#fff"/>
      <path id="Path_377" data-name="Path 377" d="M289,21.643V19.1h.763l.455,1.739.455-1.739h.763v2.543h-.482V19.635l-.508,2.008h-.5l-.508-2.008v2.008Z" transform="translate(-252.11 -18.605)" fill="#fff"/>
    </g>
    <path id="Path_378" data-name="Path 378" d="M831.328,108.529c0-1.874-.053-3.707,0-5.514a2.165,2.165,0,0,0-2.074-2.262h-.241a2.249,2.249,0,0,0-2.208,2.275v3.961c0,1.392-.348,1.686-1.82,1.553,0-.027-.053-.053-.053-.081,0-1.994-.093-4,0-5.982a3.537,3.537,0,0,1,2.556-3.373,4.207,4.207,0,0,1,4.523.923c.093.094.2.174.321.281.174-.144.348-.281.482-.415a3.911,3.911,0,0,1,4.2-.736,3.563,3.563,0,0,1,2.543,3.051,27.872,27.872,0,0,1,.12,3.346V107.2c0,1.017-.321,1.338-1.391,1.352h-.482v-5.313A2.213,2.213,0,0,0,836,100.82a2.133,2.133,0,0,0-2.61,1.392,1.724,1.724,0,0,0-.053.255,7.5,7.5,0,0,0-.107,1.553v3.145c0,1.057-.36,1.392-1.472,1.405C831.662,108.555,831.513,108.542,831.328,108.529Z" transform="translate(-702.973 -72.269)" fill="#fff"/>
    <path id="Path_379" data-name="Path 379" d="M585,108.243h1.66c.16,0,.348.2.441.348a2.585,2.585,0,0,0,2.569,1.218,2.176,2.176,0,0,0,1.954-2.369,3.724,3.724,0,0,1-2.489.642,4.148,4.148,0,0,1-3.948-3.854c-.081-1.806-.027-3.613-.04-5.433a2.137,2.137,0,0,1,.067-.281c.441.04.87.093,1.3.174.575.144.682.629.7,1.1v4.108a2.224,2.224,0,0,0,4.443.027c.04-1.619.04-3.236.053-4.871V98.5c.4.04.776.04,1.164.107a.88.88,0,0,1,.761.749,1.391,1.391,0,0,1,.053.4c0,2.757.04,5.447-.081,8.164-.081,2.315-1.582,3.613-4.122,3.854a4.292,4.292,0,0,1-4.4-3.145,2.327,2.327,0,0,1-.077-.388Z" transform="translate(-495.187 -71.983)" fill="#fff"/>
    <path id="Path_380" data-name="Path 380" d="M317.3,76.2a3.39,3.39,0,0,1,1.834,4l1.007-.468a5.165,5.165,0,0,1,6.785,2.034,4.591,4.591,0,0,1,.562,1.914,5.088,5.088,0,0,1-10.1.964c-.014-.081-.014-.16-.027-.241C317.3,81.821,317.3,76.416,317.3,76.2Zm5.085,10.853a3.028,3.028,0,1,0-3.185-3.024,3.107,3.107,0,0,0,3.185,3.025Z" transform="translate(-263.313 -52.667)" fill="#6a9447"/>
    <path id="Path_381" data-name="Path 381" d="M503.393,79.961A3.365,3.365,0,0,1,505.171,76c0,.241.067.4.067.549,0,2.556.04,5.112-.04,7.655a4.42,4.42,0,0,1-2.81,4.015,5.115,5.115,0,0,1-5.152-.375,4.921,4.921,0,0,1-1.7-6.035,5.131,5.131,0,0,1,5.848-2.65,19.613,19.613,0,0,1,2.009.8Zm-3.255,6.919a3.12,3.12,0,0,0,3.211-3,3.183,3.183,0,1,0-3.265,2.984A.08.08,0,0,0,500.138,86.881Z" transform="translate(-417.328 -52.494)" fill="#fff"/>
    <path id="Path_382" data-name="Path 382" d="M743.8,107.762l-.575.308a5.259,5.259,0,0,1-6.975-1.767,4.669,4.669,0,0,1-.227-4.458,5.218,5.218,0,0,1,5.487-2.757,4.876,4.876,0,0,1,4.2,3.974,26.1,26.1,0,0,1,.107,3.236v1.983c0,.375-.134.482-.5.455a6.255,6.255,0,0,0-.87.014c-.468.04-.656-.134-.575-.575A3.71,3.71,0,0,0,743.8,107.762Zm-3.065-.935a3,3,0,0,0,3.092-2.876v-.04a3,3,0,0,0-3.051-2.984h-.027a3.076,3.076,0,0,0-3.105,2.931,3.035,3.035,0,0,0,3.092,2.971Z" transform="translate(-625.605 -72.439)" fill="#fff"/>
    <path id="Path_383" data-name="Path 383" d="M430.708,98.9h7.479a.6.6,0,0,1,.7.629,2.4,2.4,0,0,1-.629,1.954c-1.325,1.646-4.51,5.193-4.684,5.407a4.13,4.13,0,0,0,.575,0H437.4c1.057,0,1.338.255,1.432,1.271v.549H431.4a.575.575,0,0,1-.629-.508v-.04a2.317,2.317,0,0,1,.642-1.887c1.553-1.646,3.011-3.373,4.523-5.072l.535-.629h-4.3C430.977,100.556,430.615,100.154,430.708,98.9Z" transform="translate(-361.532 -72.326)" fill="#6a9447"/>
    <path id="Path_384" data-name="Path 384" d="M662.4,108.223v-4.041a12.2,12.2,0,0,1,.12-2.423,4.082,4.082,0,0,1,4.563-3.252,4.16,4.16,0,0,1,3.841,4v4.363c0,1.007-.348,1.325-1.405,1.366h-.736v-2.168c0-1.164.027-2.328,0-3.493a2.076,2.076,0,0,0-2.075-2.073,2.429,2.429,0,0,0-.816.134,2,2,0,0,0-1.352,2.047v3.961c0,1.325-.294,1.593-1.686,1.606C662.724,108.25,662.6,108.236,662.4,108.223Z" transform="translate(-562.218 -71.963)" fill="#fff"/>
    <path id="Path_385" data-name="Path 385" d="M983.139,106.55l.977,1.726c-2.891,1.914-7.521,0-8.11-3.308-.522-3.158,2.356-6.7,7-5.42.335.093.656.227,1.057.36-.174.348-.321.642-.482.935l-.455.856a3.529,3.529,0,0,0-4.269.468,2.831,2.831,0,0,0-.254,3.573C979.606,107.046,981.025,107.326,983.139,106.55Z" transform="translate(-833.813 -72.659)" fill="#fff"/>
    <path id="Path_386" data-name="Path 386" d="M1045.064,108.7a.867.867,0,0,1-.053-.174c-.08-1.526.174-1.78,1.74-1.78h1.74a.849.849,0,0,0,.9-.763.836.836,0,0,0-.615-1.007c-.482-.16-.99-.281-1.472-.415-1.673-.468-2.409-1.5-2.195-3.065a2.92,2.92,0,0,1,3-2.5h2.661v.923c-.08.719-.374.964-1.164.977h-1.164a2.718,2.718,0,0,0-.736.107.935.935,0,0,0-.093,1.806,10.019,10.019,0,0,0,1.285.321c1.739.388,2.6,1.486,2.409,3.065a2.912,2.912,0,0,1-3.092,2.5Z" transform="translate(-893.627 -72.411)" fill="#fff"/>
    <path id="Path_387" data-name="Path 387" d="M403.379,98.4a10.459,10.459,0,0,1,1.3.188.921.921,0,0,1,.736.843c.027.709.04,1.419.04,2.115v6.772c-.508-.093-.935-.144-1.352-.255a.9.9,0,0,1-.709-.91C403.365,104.3,403.379,98.4,403.379,98.4Z" transform="translate(-337.869 -71.896)" fill="#6a9447"/>
    <path id="Path_388" data-name="Path 388" d="M951.408,108.784h-.7c-.964-.04-1.312-.375-1.312-1.285V99.148c1.405-.188,2.021.294,2.021,1.593V108.3a2.011,2.011,0,0,1-.013.482Z" transform="translate(-810.82 -72.51)" fill="#fff"/>
    <path id="Path_389" data-name="Path 389" d="M402.2,74.27a1.193,1.193,0,1,1,1.191,1.124A1.155,1.155,0,0,1,402.2,74.27Z" transform="translate(-336.851 -50.014)" fill="#62a04b"/>
    <path id="Path_390" data-name="Path 390" d="M950.315,74.121a1.137,1.137,0,0,1-1.111,1.071,1.18,1.18,0,0,1-1.2-1.1,1.158,1.158,0,0,1,2.315.027Z" transform="translate(-809.608 -49.892)" fill="#fff"/>
    <g id="Group_397" data-name="Group 397" transform="translate(54.335 43.38)">
      <path id="Path_391" data-name="Path 391" d="M319.9,227.584l1.258-2.984,1.2,2.984h-.281l-.36-.977h-1.178l-.375.977Zm.736-1.2h1.007l-.5-1.245Z" transform="translate(-319.9 -224.586)" fill="#fff"/>
      <path id="Path_392" data-name="Path 392" d="M350.748,225.575a1.56,1.56,0,0,0-.442-.268,1.39,1.39,0,0,0-.468-.093,1.264,1.264,0,0,0-.91.348,1.2,1.2,0,0,0-.348.923,1.5,1.5,0,0,0,.081.508,1.276,1.276,0,0,0,.255.4,1.175,1.175,0,0,0,.4.268,1.19,1.19,0,0,0,.482.093,1.514,1.514,0,0,0,.482-.081,1.226,1.226,0,0,0,.441-.255v.308a3.227,3.227,0,0,1-.441.2,1.887,1.887,0,0,1-.468.067,1.84,1.84,0,0,1-.6-.107,1.2,1.2,0,0,1-.482-.308,1.455,1.455,0,0,1-.431-1.084,1.78,1.78,0,0,1,.107-.6,1.176,1.176,0,0,1,.321-.482,1.294,1.294,0,0,1,.482-.308,1.763,1.763,0,0,1,.589-.107,1.559,1.559,0,0,1,.508.081,1.321,1.321,0,0,1,.431.227Z" transform="translate(-344.497 -224.933)" fill="#fff"/>
      <path id="Path_393" data-name="Path 393" d="M370.8,228.364V225.5h.255v2.61h.99v.241Z" transform="translate(-363.988 -225.366)" fill="#fff"/>
      <path id="Path_394" data-name="Path 394" d="M384.178,226.409a1.385,1.385,0,0,1-.12.575,1.356,1.356,0,0,1-.334.482,1.7,1.7,0,0,1-.5.334,1.481,1.481,0,0,1-.589.107,1.763,1.763,0,0,1-.589-.107,1.573,1.573,0,0,1-.83-.83,1.432,1.432,0,0,1-.12-.575,1.387,1.387,0,0,1,.12-.575,1.542,1.542,0,0,1,.334-.5,1.318,1.318,0,0,1,.5-.321,1.763,1.763,0,0,1,.589-.107,1.648,1.648,0,0,1,.589.107,1.752,1.752,0,0,1,.5.321,1.542,1.542,0,0,1,.334.5A1.447,1.447,0,0,1,384.178,226.409Zm-1.539,1.271a1.151,1.151,0,0,0,.482-.093,1.423,1.423,0,0,0,.415-.281,1.057,1.057,0,0,0,.268-.415,1.355,1.355,0,0,0,0-.99,1.423,1.423,0,0,0-.281-.415,1.366,1.366,0,0,0-.4-.281,1.286,1.286,0,0,0-.964,0,1.367,1.367,0,0,0-.4.281,1.423,1.423,0,0,0-.281.415,1.208,1.208,0,0,0-.094.5,1.239,1.239,0,0,0,.375.91,1.366,1.366,0,0,0,.4.281,1.15,1.15,0,0,0,.482.095Z" transform="translate(-372.909 -224.846)" fill="#fff"/>
      <path id="Path_395" data-name="Path 395" d="M408.3,225.4h.255v1.873a.863.863,0,0,0,.2.629.964.964,0,0,0,1.178,0,.863.863,0,0,0,.2-.629V225.4h.255v1.793a1.253,1.253,0,0,1-.255.87,1.014,1.014,0,0,1-.791.281,1.033,1.033,0,0,1-.791-.281,1.252,1.252,0,0,1-.255-.87Z" transform="translate(-396.467 -225.279)" fill="#fff"/>
      <path id="Path_396" data-name="Path 396" d="M429.2,228.363V225.5h.442a4.122,4.122,0,0,1,.843.053,1.151,1.151,0,0,1,.431.2,1.136,1.136,0,0,1,.36.5,1.994,1.994,0,0,1,0,1.366,1.1,1.1,0,0,1-.36.482,1.15,1.15,0,0,1-.431.2,3.422,3.422,0,0,1-.776.067H429.2Zm.255-.227h.359a2.338,2.338,0,0,0,.629-.053.754.754,0,0,0,.321-.174.969.969,0,0,0,.268-.415,1.85,1.85,0,0,0,.094-.575,1.528,1.528,0,0,0-.094-.575,1,1,0,0,0-.281-.415.885.885,0,0,0-.334-.174,2.812,2.812,0,0,0-.7-.053h-.281v2.436Z" transform="translate(-414.572 -225.365)" fill="#fff"/>
      <path id="Path_397" data-name="Path 397" d="M458.7,228.364V225.5h.5a3.5,3.5,0,0,1,.468.027.5.5,0,0,1,.241.107.6.6,0,0,1,.216.267.741.741,0,0,1,.081.348.638.638,0,0,1-.121.388.585.585,0,0,1-.334.216.64.64,0,0,1,.431.227.719.719,0,0,1,.16.455,1.022,1.022,0,0,1-.067.36.647.647,0,0,1-.188.268.62.62,0,0,1-.308.16,2.875,2.875,0,0,1-.6.053l-.468-.014Zm.267-1.593h.321a.836.836,0,0,0,.508-.12.452.452,0,0,0,.144-.388.518.518,0,0,0-.144-.415.809.809,0,0,0-.508-.121h-.321Zm0,1.366h.334a2.214,2.214,0,0,0,.388-.027.468.468,0,0,0,.188-.081.462.462,0,0,0,.144-.2.638.638,0,0,0,.053-.267.742.742,0,0,0-.067-.308.425.425,0,0,0-.174-.2.673.673,0,0,0-.174-.067,2,2,0,0,0-.321-.014h-.388l.014,1.164Z" transform="translate(-440.124 -225.366)" fill="#fff"/>
      <path id="Path_398" data-name="Path 398" d="M475.2,225.4h.255v1.873a.863.863,0,0,0,.2.629.964.964,0,0,0,1.178,0,.863.863,0,0,0,.2-.629V225.4h.255v1.793a1.251,1.251,0,0,1-.255.87,1.014,1.014,0,0,1-.791.281,1.033,1.033,0,0,1-.791-.281,1.252,1.252,0,0,1-.255-.87Z" transform="translate(-454.413 -225.279)" fill="#fff"/>
      <path id="Path_399" data-name="Path 399" d="M494.4,227.535l.227-.12a.661.661,0,0,0,.216.334.575.575,0,0,0,.375.121.565.565,0,0,0,.431-.16.686.686,0,0,0,.037-.79,1.326,1.326,0,0,0-.441-.321,1.719,1.719,0,0,1-.575-.4.693.693,0,0,1,.057-.91.791.791,0,0,1,.535-.188.679.679,0,0,1,.375.093.7.7,0,0,1,.255.268l-.2.121a.473.473,0,0,0-.174-.188.527.527,0,0,0-.268-.067.445.445,0,0,0-.334.121.466.466,0,0,0-.12.334c0,.2.16.388.5.562l.134.067a1.87,1.87,0,0,1,.5.375.841.841,0,0,1,.12.468.784.784,0,0,1-.843.843.816.816,0,0,1-.482-.134,1.305,1.305,0,0,1-.313-.428Z" transform="translate(-471.047 -225.019)" fill="#fff"/>
      <path id="Path_400" data-name="Path 400" d="M511,228.364V225.5h.255v2.864Z" transform="translate(-485.425 -225.366)" fill="#fff"/>
      <path id="Path_401" data-name="Path 401" d="M518.3,227.5v-3l2.034,2.4V224.62h.241v2.958l-2.034-2.409v2.315Z" transform="translate(-491.748 -224.5)" fill="#fff"/>
      <path id="Path_402" data-name="Path 402" d="M540.7,228.364V225.5h1.419v.241h-1.164v.9h1.164v.241h-1.164v1.231h1.164v.241Z" transform="translate(-511.15 -225.366)" fill="#fff"/>
      <path id="Path_403" data-name="Path 403" d="M554.4,227.535l.227-.12a.661.661,0,0,0,.216.334.6.6,0,0,0,.375.121.565.565,0,0,0,.431-.16.686.686,0,0,0,.037-.79,1.325,1.325,0,0,0-.441-.321,1.717,1.717,0,0,1-.575-.4.693.693,0,0,1,.057-.91.729.729,0,0,1,.536-.188.679.679,0,0,1,.375.093.7.7,0,0,1,.255.268l-.2.121a.473.473,0,0,0-.174-.188.567.567,0,0,0-.268-.067.445.445,0,0,0-.334.121.466.466,0,0,0-.121.334c0,.2.16.388.5.562l.134.067a1.873,1.873,0,0,1,.5.375.842.842,0,0,1,.12.468.785.785,0,0,1-.843.843.816.816,0,0,1-.482-.134A1.3,1.3,0,0,1,554.4,227.535Z" transform="translate(-523.017 -225.019)" fill="#fff"/>
      <path id="Path_404" data-name="Path 404" d="M569.4,227.534l.227-.12a.662.662,0,0,0,.216.334.6.6,0,0,0,.375.121.565.565,0,0,0,.432-.16.68.68,0,0,0,.04-.791,1.321,1.321,0,0,0-.442-.321,1.721,1.721,0,0,1-.575-.4.654.654,0,0,1-.144-.415.647.647,0,0,1,.2-.5.729.729,0,0,1,.536-.188.678.678,0,0,1,.375.093.7.7,0,0,1,.255.267l-.2.121a.472.472,0,0,0-.174-.188.566.566,0,0,0-.267-.067.445.445,0,0,0-.334.121.466.466,0,0,0-.121.334c0,.2.16.388.5.562l.134.067a1.87,1.87,0,0,1,.5.375.842.842,0,0,1,.121.468.784.784,0,0,1-.843.843.815.815,0,0,1-.482-.134,1.006,1.006,0,0,1-.318-.426Z" transform="translate(-536.01 -225.018)" fill="#fff"/>
      <path id="Path_405" data-name="Path 405" d="M594.5,225.4h.255v1.873a.863.863,0,0,0,.2.629.964.964,0,0,0,1.178,0,.863.863,0,0,0,.2-.629V225.4h.255v1.793a1.251,1.251,0,0,1-.255.87,1.014,1.014,0,0,1-.791.281,1.034,1.034,0,0,1-.791-.281,1.253,1.253,0,0,1-.254-.87Z" transform="translate(-557.748 -225.279)" fill="#fff"/>
      <path id="Path_406" data-name="Path 406" d="M615.3,227.5v-3l2.034,2.4V224.62h.241v2.958l-2.034-2.409v2.315Z" transform="translate(-575.767 -224.5)" fill="#fff"/>
      <path id="Path_407" data-name="Path 407" d="M637.7,228.364V225.5h.255v2.864Z" transform="translate(-595.169 -225.366)" fill="#fff"/>
      <path id="Path_408" data-name="Path 408" d="M643.691,228.364v-2.623H642.9V225.5h1.847v.241h-.791v2.623Z" transform="translate(-599.673 -225.366)" fill="#fff"/>
      <path id="Path_409" data-name="Path 409" d="M670.577,226.409a1.385,1.385,0,0,1-.121.575,1.357,1.357,0,0,1-.334.482,1.7,1.7,0,0,1-.5.334,1.481,1.481,0,0,1-.589.107,1.763,1.763,0,0,1-.589-.107,1.572,1.572,0,0,1-.83-.83,1.434,1.434,0,0,1-.12-.575,1.386,1.386,0,0,1,.12-.575,1.542,1.542,0,0,1,.334-.5,1.318,1.318,0,0,1,.5-.321,1.764,1.764,0,0,1,.589-.107,1.647,1.647,0,0,1,.589.107,1.753,1.753,0,0,1,.5.321,1.542,1.542,0,0,1,.334.5A1.45,1.45,0,0,1,670.577,226.409Zm-1.539,1.271a1.151,1.151,0,0,0,.482-.093,1.422,1.422,0,0,0,.415-.281,1.057,1.057,0,0,0,.268-.415,1.355,1.355,0,0,0,0-.99,1.417,1.417,0,0,0-.281-.415,1.365,1.365,0,0,0-.4-.281,1.286,1.286,0,0,0-.964,0,1.361,1.361,0,0,0-.4.281,1.421,1.421,0,0,0-.281.415,1.209,1.209,0,0,0-.093.5,1.251,1.251,0,0,0,.093.5,1.423,1.423,0,0,0,.281.415,1.366,1.366,0,0,0,.4.281,1.15,1.15,0,0,0,.482.095Z" transform="translate(-620.981 -224.846)" fill="#fff"/>
      <path id="Path_410" data-name="Path 410" d="M694.8,228.364V225.5h1.419v.241h-1.164v.9h1.112v.241h-1.111v1.486Z" transform="translate(-644.627 -225.366)" fill="#fff"/>
    </g>
    <g id="Group_399" data-name="Group 399" transform="translate(107.719 43.297)">
      <g id="Group_398" data-name="Group 398" transform="translate(0 0)">
        <path id="Path_411" data-name="Path 411" d="M720,227.364l-1.2-2.864h.83l.575,1.606c.014.04.014.081.027.12.014.067.04.16.067.268a1.637,1.637,0,0,1,.067-.241.516.516,0,0,1,.04-.144l.575-1.606h.83l-1.2,2.864Z" transform="translate(-718.8 -224.417)" fill="#eb474c"/>
        <path id="Path_412" data-name="Path 412" d="M740.4,227.364l.99-2.864h.977l.99,2.864h-.776l-.144-.508h-1.111l-.144.508Zm1.1-1.071h.776l-.294-.95a.827.827,0,0,0-.04-.144c-.027-.093-.04-.174-.067-.241-.014.067-.04.134-.053.2a.983.983,0,0,0-.053.188Z" transform="translate(-737.509 -224.417)" fill="#eb474c"/>
        <path id="Path_413" data-name="Path 413" d="M764.6,227.364V224.5h.776v2.195h.977v.669Z" transform="translate(-758.47 -224.417)" fill="#eb474c"/>
        <path id="Path_414" data-name="Path 414" d="M780.4,224.314h.776v1.392a3.553,3.553,0,0,0,.014.441.815.815,0,0,0,.053.227.241.241,0,0,0,.16.16.58.58,0,0,0,.281.067.527.527,0,0,0,.268-.067.461.461,0,0,0,.16-.16.711.711,0,0,0,.053-.227,3.553,3.553,0,0,0,.014-.441V224.3h.776v1.51a3.016,3.016,0,0,1-.054.7.954.954,0,0,1-.188.388.9.9,0,0,1-.4.255,1.987,1.987,0,0,1-.616.093,1.732,1.732,0,0,1-.629-.093,1.034,1.034,0,0,1-.4-.255.877.877,0,0,1-.187-.388,2.954,2.954,0,0,1-.067-.7v-.294l-.013-1.2Z" transform="translate(-772.156 -224.245)" fill="#eb474c"/>
        <path id="Path_415" data-name="Path 415" d="M804,227.364V224.5h1.753v.629h-.99v.5h.935v.616h-.935v.482h.99v.642Z" transform="translate(-792.598 -224.417)" fill="#eb474c"/>
        <path id="Path_416" data-name="Path 416" d="M823.08,227.364h-.736l-.174-1.245a2.726,2.726,0,0,1-.027-.294c-.014-.081-.014-.2-.027-.348a4.294,4.294,0,0,1-.107.455c-.014.027-.014.067-.027.081l-.388,1.338h-.522l-.388-1.338a.188.188,0,0,0-.027-.081,2.715,2.715,0,0,1-.107-.455c-.014.144-.027.255-.027.321,0,.04-.014.094-.014.16s-.014.12-.014.16l-.174,1.245H819.6l.442-2.864h.776l.432,1.486a.1.1,0,0,1,.014.053,1.991,1.991,0,0,1,.081.334,1.4,1.4,0,0,1,.027-.174c0-.014.027-.093.053-.227l.442-1.472h.776Z" transform="translate(-806.11 -224.417)" fill="#eb474c"/>
        <path id="Path_417" data-name="Path 417" d="M850.865,225.586a1.7,1.7,0,0,1-.107.589,1.644,1.644,0,0,1-.334.482,1.318,1.318,0,0,1-.495.321,1.5,1.5,0,0,1-1.178,0,1.583,1.583,0,0,1-.5-.321,1.357,1.357,0,0,1-.334-.482,1.437,1.437,0,0,1,0-1.151,1.357,1.357,0,0,1,.334-.482,1.544,1.544,0,0,1,.5-.334,1.439,1.439,0,0,1,.589-.107,1.7,1.7,0,0,1,.589.107,1.355,1.355,0,0,1,.495.334,1.646,1.646,0,0,1,.334.482A1.278,1.278,0,0,1,850.865,225.586Zm-1.526.843a.673.673,0,0,0,.535-.241,1.1,1.1,0,0,0,.16-.268.877.877,0,0,0,.053-.334.851.851,0,0,0-.216-.6.693.693,0,0,0-.535-.241.674.674,0,0,0-.535.241.917.917,0,0,0-.216.6.81.81,0,0,0,.216.6.674.674,0,0,0,.537.241Z" transform="translate(-830.536 -224.071)" fill="#eb474c"/>
        <path id="Path_418" data-name="Path 418" d="M876.48,227.364h-.736l-.174-1.245a2.7,2.7,0,0,1-.026-.294c-.014-.081-.014-.2-.027-.348a4.324,4.324,0,0,1-.107.455c-.014.027-.014.067-.027.081l-.388,1.338h-.522l-.388-1.338a.191.191,0,0,0-.027-.081,2.679,2.679,0,0,1-.107-.455c-.014.144-.027.255-.027.321,0,.04-.014.094-.014.16s-.014.12-.014.16l-.174,1.245H873l.442-2.864h.776l.431,1.486a.1.1,0,0,1,.013.053,1.979,1.979,0,0,1,.08.334,1.386,1.386,0,0,1,.027-.174c0-.014.027-.093.054-.227l.442-1.472h.776Z" transform="translate(-852.364 -224.417)" fill="#eb474c"/>
        <path id="Path_419" data-name="Path 419" d="M902.2,227.364V224.5h1.753v.629h-.99v.5h.935v.616h-.935v.482h.99v.642Z" transform="translate(-877.656 -224.417)" fill="#eb474c"/>
        <path id="Path_420" data-name="Path 420" d="M919.2,227.276v-2.864h.749l1.084,1.472a1.861,1.861,0,0,1,.107.188l.16.321c-.014-.144-.026-.255-.026-.321a1.706,1.706,0,0,1-.014-.255V224.4h.749v2.864h-.749l-1.084-1.486c-.014-.027-.053-.081-.107-.188a3.55,3.55,0,0,1-.16-.321l.04.321c0,.12.014.2.014.255v1.419H919.2Z" transform="translate(-892.381 -224.331)" fill="#eb474c"/>
        <path id="Path_421" data-name="Path 421" d="M943.642,227.276v-2.195H943V224.4h2.075v.682h-.642v2.194Z" transform="translate(-912.996 -224.331)" fill="#eb474c"/>
        <path id="Path_422" data-name="Path 422" d="M961.2,224.314h.776v1.392a3.553,3.553,0,0,0,.014.441.814.814,0,0,0,.054.227.241.241,0,0,0,.16.16.581.581,0,0,0,.281.067.527.527,0,0,0,.268-.067.462.462,0,0,0,.161-.16.711.711,0,0,0,.053-.227,3.554,3.554,0,0,0,.014-.442V224.3h.776v1.51a3.033,3.033,0,0,1-.053.7.957.957,0,0,1-.188.388.9.9,0,0,1-.4.255,1.99,1.99,0,0,1-.616.093,1.732,1.732,0,0,1-.629-.093,1.03,1.03,0,0,1-.4-.255.876.876,0,0,1-.187-.388,2.954,2.954,0,0,1-.067-.7v-.294l-.014-1.2Z" transform="translate(-928.76 -224.245)" fill="#eb474c"/>
        <path id="Path_423" data-name="Path 423" d="M986.781,227.364h-.736l-.174-1.245a2.665,2.665,0,0,1-.027-.294c-.014-.081-.014-.2-.027-.348a4.323,4.323,0,0,1-.107.455c-.014.027-.014.067-.027.081l-.388,1.338h-.522l-.388-1.338a.19.19,0,0,0-.027-.081,2.7,2.7,0,0,1-.107-.455c-.014.144-.027.255-.027.321,0,.04-.014.094-.014.16s-.014.12-.014.16l-.174,1.245H983.3l.442-2.864h.776l.431,1.486a.1.1,0,0,1,.014.053,1.985,1.985,0,0,1,.081.334,1.444,1.444,0,0,1,.027-.174c0-.014.027-.093.053-.227l.442-1.472h.776Z" transform="translate(-947.903 -224.417)" fill="#eb474c"/>
        <path id="Path_424" data-name="Path 424" d="M1093.1,241h.736l-.6,1.231h-.536Z" transform="translate(-1042.661 -238.71)" fill="#eb474c"/>
        <path id="Path_425" data-name="Path 425" d="M1031.4,227.364V224.5h.791v2.864Z" transform="translate(-989.565 -224.417)" fill="#eb474c"/>
        <path id="Path_426" data-name="Path 426" d="M1042,227.276v-2.864h.75l1.083,1.472a1.774,1.774,0,0,1,.107.188l.16.321c-.013-.144-.027-.255-.027-.321a1.69,1.69,0,0,1-.014-.255V224.4h.749v2.864h-.749l-1.085-1.486c-.013-.027-.053-.081-.107-.188-.053-.081-.094-.188-.161-.321q.021.16.04.321c0,.12.013.2.013.255v1.419H1042Z" transform="translate(-998.747 -224.331)" fill="#eb474c"/>
        <path id="Path_427" data-name="Path 427" d="M1068.722,224.087v.856a1.138,1.138,0,0,0-.321-.267.781.781,0,0,0-.348-.081.735.735,0,0,0-.548.227.5.5,0,0,0-.121.174.7.7,0,0,0-.067.2,1.317,1.317,0,0,0-.026.227.807.807,0,0,0,.216.575.735.735,0,0,0,.548.227.824.824,0,0,0,.348-.081,1.3,1.3,0,0,0,.322-.268v.856a2.155,2.155,0,0,1-.375.134,1.782,1.782,0,0,1-.374.04,1.6,1.6,0,0,1-.442-.053,1.134,1.134,0,0,1-.36-.174,1.578,1.578,0,0,1-.495-.535,1.7,1.7,0,0,1-.178-.738,1.788,1.788,0,0,1,.107-.6,1.46,1.46,0,0,1,.12-.255,1.579,1.579,0,0,1,.2-.241,1.189,1.189,0,0,1,.468-.308,1.556,1.556,0,0,1,.562-.107,1.891,1.891,0,0,1,.375.04,1.672,1.672,0,0,1,.389.15Z" transform="translate(-1019.968 -223.897)" fill="#eb474c"/>
        <path id="Path_428" data-name="Path 428" d="M1085.8,240.988a.433.433,0,0,1,.107-.281.372.372,0,0,1,.281-.107.383.383,0,0,1,.281.107.372.372,0,0,1,.107.281.43.43,0,0,1-.107.281.388.388,0,0,1-.562,0,.433.433,0,0,1-.107-.281Z" transform="translate(-1036.685 -238.363)" fill="#eb474c"/>
      </g>
    </g>
    <path id="Path_429" data-name="Path 429" d="M1099.673,70.6a2.347,2.347,0,0,0-1.245.334,2.5,2.5,0,0,0-.9.9,2.287,2.287,0,0,0-.334,1.218,2.392,2.392,0,0,0,.334,1.258,2.366,2.366,0,0,0,.9.883,2.518,2.518,0,0,0,1.258.321,2.442,2.442,0,0,0,2.462-2.463,2.319,2.319,0,0,0-.334-1.218,2.612,2.612,0,0,0-.9-.9,2.415,2.415,0,0,0-1.245-.334Zm1.7,2.423a1.81,1.81,0,0,1-.227.883,1.549,1.549,0,0,1-.629.616,1.744,1.744,0,0,1-.856.227,1.8,1.8,0,0,1-.87-.227,1.631,1.631,0,0,1-.629-.616,1.712,1.712,0,0,1,2.958-1.727,1.415,1.415,0,0,1,.255.843Zm-.683-.36a.808.808,0,0,0-.267-.656,1.29,1.29,0,0,0-.763-.216h-1.084v2.476h.749v-.736h.2l.442.736h.844l-.535-.856a.773.773,0,0,0,.415-.749Zm-1.2-.241a.751.751,0,0,1,.348.053.19.19,0,0,1,.094.188.212.212,0,0,1-.094.2.719.719,0,0,1-.348.053h-.174v-.5Z" transform="translate(-938.84 -47.816)" fill="#fff"/>
  </g>
</svg>
